# Blender v2.75 (sub 0) OBJ File: ''
# www.blender.org
v 5.578232 0.597017 -7.045022
v 5.578232 0.597015 2.954978
v -4.421768 0.597015 2.954977
v -4.421766 0.597017 -7.045024
v 12.495766 38.686405 -20.253471
v -4.421768 10.597017 -7.045021
v -4.421770 10.597015 2.954977
v 5.578229 10.597015 2.954982
vn 0.000000 -1.000000 -0.000000
vn -0.497500 0.710700 0.497500
vn 0.987500 -0.111400 0.111400
vn -0.000000 -0.000000 1.000000
vn -1.000000 -0.000000 -0.000000
vn -0.227400 -0.227400 -0.946900
s 1
f 1//1 2//1 3//1 4//1
f 5//2 6//2 7//2 8//2
f 1//3 5//3 8//3 2//3
f 2//4 8//4 7//4 3//4
f 3//5 7//5 6//5 4//5
f 5//6 1//6 4//6 6//6
